<mxfile host="app.diagrams.net" agent="Mozilla/5.0 (Windows NT 10.0; Win64; x64) AppleWebKit/537.36 (KHTML, like Gecko) Chrome/137.0.0.0 Safari/537.36" version="27.1.6">
  <diagram id="MkeFDCpHVcl3Wo9Jf_AH" name="Página-1">
    <mxGraphModel dx="1111" dy="473" grid="1" gridSize="10" guides="1" tooltips="1" connect="1" arrows="1" fold="1" page="1" pageScale="1" pageWidth="827" pageHeight="1169" math="0" shadow="0">
      <root>
        <mxCell id="0" />
        <mxCell id="1" parent="0" />
        <mxCell id="2" value="Sistema de Punto de Venta Parroquial" style="swimlane;whiteSpace=wrap;html=1;fillColor=#e1d5e7;strokeColor=#9673a6;" parent="1" vertex="1">
          <mxGeometry x="210" y="85" width="400" height="500" as="geometry" />
        </mxCell>
        <mxCell id="3" value="Solicitar Intención&lt;br&gt;de Misa" style="ellipse;whiteSpace=wrap;html=1;fillColor=#dae8fc;strokeColor=#6c8ebf;" parent="2" vertex="1">
          <mxGeometry x="40" y="50" width="120" height="60" as="geometry" />
        </mxCell>
        <mxCell id="4" value="Registrar Datos&lt;br&gt;Automáticamente" style="ellipse;whiteSpace=wrap;html=1;fillColor=#dae8fc;strokeColor=#6c8ebf;" parent="2" vertex="1">
          <mxGeometry x="220" y="50" width="120" height="60" as="geometry" />
        </mxCell>
        <mxCell id="5" value="Realizar Pago&lt;br&gt;Digital" style="ellipse;whiteSpace=wrap;html=1;fillColor=#dae8fc;strokeColor=#6c8ebf;" parent="2" vertex="1">
          <mxGeometry x="40" y="150" width="120" height="60" as="geometry" />
        </mxCell>
        <mxCell id="6" value="Generar Recibo&lt;br&gt;Digital" style="ellipse;whiteSpace=wrap;html=1;fillColor=#dae8fc;strokeColor=#6c8ebf;" parent="2" vertex="1">
          <mxGeometry x="270" y="130" width="120" height="60" as="geometry" />
        </mxCell>
        <mxCell id="7" value="Enviar Confirmación&lt;br&gt;por Correo" style="ellipse;whiteSpace=wrap;html=1;fillColor=#dae8fc;strokeColor=#6c8ebf;" parent="2" vertex="1">
          <mxGeometry x="50" y="245" width="120" height="60" as="geometry" />
        </mxCell>
        <mxCell id="8" value="Verificar Pago&lt;br&gt;Automáticamente" style="ellipse;whiteSpace=wrap;html=1;fillColor=#dae8fc;strokeColor=#6c8ebf;" parent="2" vertex="1">
          <mxGeometry x="40" y="425" width="120" height="60" as="geometry" />
        </mxCell>
        <mxCell id="9" value="Incluir Intención&lt;br&gt;en Misa" style="ellipse;whiteSpace=wrap;html=1;fillColor=#dae8fc;strokeColor=#6c8ebf;" parent="2" vertex="1">
          <mxGeometry x="270" y="410" width="120" height="60" as="geometry" />
        </mxCell>
        <mxCell id="10" value="Feligrés" style="shape=umlActor;verticalLabelPosition=bottom;verticalAlign=top;html=1;outlineConnect=0;fillColor=#f8cecc;strokeColor=#b85450;" parent="1" vertex="1">
          <mxGeometry x="50" y="200" width="30" height="60" as="geometry" />
        </mxCell>
        <mxCell id="11" value="Sistema&lt;br&gt;Automatizado" style="shape=umlActor;verticalLabelPosition=bottom;verticalAlign=top;html=1;outlineConnect=0;fillColor=#fff2cc;strokeColor=#d6b656;" parent="1" vertex="1">
          <mxGeometry x="700" y="200" width="30" height="60" as="geometry" />
        </mxCell>
        <mxCell id="12" value="Secretaría&lt;br&gt;Parroquial" style="shape=umlActor;verticalLabelPosition=bottom;verticalAlign=top;html=1;outlineConnect=0;fillColor=#d5e8d4;strokeColor=#82b366;" parent="1" vertex="1">
          <mxGeometry x="50" y="400" width="30" height="60" as="geometry" />
        </mxCell>
        <mxCell id="13" value="Plataforma&lt;br&gt;de Pago" style="shape=umlActor;verticalLabelPosition=bottom;verticalAlign=top;html=1;outlineConnect=0;fillColor=#e1d5e7;strokeColor=#9673a6;" parent="1" vertex="1">
          <mxGeometry x="700" y="400" width="30" height="60" as="geometry" />
        </mxCell>
        <mxCell id="14" value="" style="endArrow=none;html=1;rounded=0;" parent="1" source="10" target="3" edge="1">
          <mxGeometry width="50" height="50" relative="1" as="geometry">
            <mxPoint x="390" y="340" as="sourcePoint" />
            <mxPoint x="440" y="290" as="targetPoint" />
          </mxGeometry>
        </mxCell>
        <mxCell id="15" value="" style="endArrow=none;html=1;rounded=0;" parent="1" source="10" target="5" edge="1">
          <mxGeometry width="50" height="50" relative="1" as="geometry">
            <mxPoint x="390" y="340" as="sourcePoint" />
            <mxPoint x="440" y="290" as="targetPoint" />
          </mxGeometry>
        </mxCell>
        <mxCell id="16" value="" style="endArrow=none;html=1;rounded=0;" parent="1" source="11" target="4" edge="1">
          <mxGeometry width="50" height="50" relative="1" as="geometry">
            <mxPoint x="390" y="340" as="sourcePoint" />
            <mxPoint x="440" y="290" as="targetPoint" />
          </mxGeometry>
        </mxCell>
        <mxCell id="17" value="" style="endArrow=none;html=1;rounded=0;" parent="1" source="11" target="6" edge="1">
          <mxGeometry width="50" height="50" relative="1" as="geometry">
            <mxPoint x="390" y="340" as="sourcePoint" />
            <mxPoint x="440" y="290" as="targetPoint" />
          </mxGeometry>
        </mxCell>
        <mxCell id="18" value="" style="endArrow=none;html=1;rounded=0;entryX=1;entryY=0.5;entryDx=0;entryDy=0;" parent="1" source="11" target="7" edge="1">
          <mxGeometry width="50" height="50" relative="1" as="geometry">
            <mxPoint x="390" y="340" as="sourcePoint" />
            <mxPoint x="440" y="290" as="targetPoint" />
          </mxGeometry>
        </mxCell>
        <mxCell id="19" value="" style="endArrow=none;html=1;rounded=0;entryX=1;entryY=0.5;entryDx=0;entryDy=0;" parent="1" source="11" target="8" edge="1">
          <mxGeometry width="50" height="50" relative="1" as="geometry">
            <mxPoint x="390" y="340" as="sourcePoint" />
            <mxPoint x="440" y="290" as="targetPoint" />
          </mxGeometry>
        </mxCell>
        <mxCell id="20" value="" style="endArrow=none;html=1;rounded=0;" parent="1" source="12" target="9" edge="1">
          <mxGeometry width="50" height="50" relative="1" as="geometry">
            <mxPoint x="390" y="340" as="sourcePoint" />
            <mxPoint x="440" y="290" as="targetPoint" />
          </mxGeometry>
        </mxCell>
        <mxCell id="21" value="" style="endArrow=none;html=1;rounded=0;" parent="1" source="13" target="5" edge="1">
          <mxGeometry width="50" height="50" relative="1" as="geometry">
            <mxPoint x="390" y="340" as="sourcePoint" />
            <mxPoint x="440" y="290" as="targetPoint" />
          </mxGeometry>
        </mxCell>
        <mxCell id="22" value="&amp;lt;&amp;lt;include&amp;gt;&amp;gt;" style="endArrow=open;endSize=12;dashed=1;html=1;rounded=0;" parent="1" source="3" target="4" edge="1">
          <mxGeometry width="160" relative="1" as="geometry">
            <mxPoint x="390" y="340" as="sourcePoint" />
            <mxPoint x="550" y="340" as="targetPoint" />
          </mxGeometry>
        </mxCell>
        <mxCell id="23" value="&amp;lt;&amp;lt;include&amp;gt;&amp;gt;" style="endArrow=open;endSize=12;dashed=1;html=1;rounded=0;exitX=0;exitY=0.5;exitDx=0;exitDy=0;entryX=0;entryY=0.5;entryDx=0;entryDy=0;" parent="1" source="5" target="8" edge="1">
          <mxGeometry width="160" relative="1" as="geometry">
            <mxPoint x="390" y="340" as="sourcePoint" />
            <mxPoint x="550" y="340" as="targetPoint" />
          </mxGeometry>
        </mxCell>
        <mxCell id="24" value="&amp;lt;&amp;lt;include&amp;gt;&amp;gt;" style="endArrow=open;endSize=12;dashed=1;html=1;rounded=0;" parent="1" source="8" target="6" edge="1">
          <mxGeometry x="0.1205" y="8" width="160" relative="1" as="geometry">
            <mxPoint x="390" y="340" as="sourcePoint" />
            <mxPoint x="550" y="340" as="targetPoint" />
            <mxPoint as="offset" />
          </mxGeometry>
        </mxCell>
        <mxCell id="25" value="&amp;lt;&amp;lt;include&amp;gt;&amp;gt;" style="endArrow=open;endSize=12;dashed=1;html=1;rounded=0;" parent="1" source="6" target="7" edge="1">
          <mxGeometry width="160" relative="1" as="geometry">
            <mxPoint x="390" y="340" as="sourcePoint" />
            <mxPoint x="550" y="340" as="targetPoint" />
          </mxGeometry>
        </mxCell>
        <mxCell id="26" value="&amp;lt;&amp;lt;include&amp;gt;&amp;gt;" style="endArrow=open;endSize=12;dashed=1;html=1;rounded=0;" parent="1" source="7" target="9" edge="1">
          <mxGeometry width="160" relative="1" as="geometry">
            <mxPoint x="390" y="340" as="sourcePoint" />
            <mxPoint x="550" y="340" as="targetPoint" />
          </mxGeometry>
        </mxCell>
        <mxCell id="27" value="DIAGRAMA DE CASOS DE USO&lt;br&gt;Registro y Pago de Misas Comunitarias" style="text;html=1;strokeColor=none;fillColor=none;align=center;verticalAlign=middle;whiteSpace=wrap;rounded=0;fontSize=16;fontStyle=1" parent="1" vertex="1">
          <mxGeometry x="250" y="20" width="300" height="40" as="geometry" />
        </mxCell>
        <mxCell id="28" value="Tiempo de ejecución: 5-10 minutos por intención&lt;br&gt;Entrada: Solicitud de intención, tipo, oferente, motivo&lt;br&gt;Salida: Intención registrada, comprobante de pago" style="text;html=1;strokeColor=#82b366;fillColor=#d5e8d4;align=left;verticalAlign=top;whiteSpace=wrap;rounded=0;fontSize=10;" parent="1" vertex="1">
          <mxGeometry x="50" y="600" width="300" height="60" as="geometry" />
        </mxCell>
      </root>
    </mxGraphModel>
  </diagram>
</mxfile>
